<?xml version="1.0" standalone="no"?>
<svg xmlns="http://www.w3.org/2000/svg" xmlns:xlink="http://www.w3.org/1999/xlink" width="210pt" height="295pt" viewBox="0.00 0.00 210.04 294.60">
<g id="graph0" class="graph" transform="translate(4,290.6000061035156) scale(1)" data-name="process">

<polygon fill="white" stroke="none" points="-4,4 -4,-290.6 206.04,-290.6 206.04,4 -4,4" style=""/>
<!-- start -->
<g id="node1" class="node" pointer-events="visible" data-name="start">

<ellipse fill="none" stroke="lightgray" cx="86.55" cy="-268.6" rx="29.05" ry="18" style=""/>
<text text-anchor="middle" x="86.55" y="-264.4" font-family="Times,serif" font-size="14.00" style="">Start</text>
</g>
<!-- con1 -->
<g id="node2" class="node" pointer-events="visible" data-name="con1">

<path fill="none" stroke="lightgray" d="M74.8,-195.36C74.8,-195.36 11.7,-182.24 11.7,-182.24 5.83,-181.02 5.83,-178.58 11.7,-177.36 11.7,-177.36 74.8,-164.24 74.8,-164.24 80.67,-163.02 92.42,-163.02 98.3,-164.24 98.3,-164.24 161.39,-177.36 161.39,-177.36 167.27,-178.58 167.27,-181.02 161.39,-182.24 161.39,-182.24 98.3,-195.36 98.3,-195.36 92.42,-196.58 80.67,-196.58 74.8,-195.36" style=""/>
<text text-anchor="middle" x="86.55" y="-175.6" font-family="Times,serif" font-size="14.00" style="">Condition 1?</text>
</g>
<!-- start&#45;&gt;con1 -->
<g id="edge1" class="edge" data-name="start-&gt;con1">

<path fill="none" stroke="black" d="M86.55,-250.45C86.55,-238.76 86.55,-222.99 86.55,-209.42" style=""/>
<polygon fill="black" stroke="black" points="90.05,-209.72 86.55,-199.72 83.05,-209.72 90.05,-209.72" style=""/>
<text text-anchor="middle" x="99.77" y="-220" font-family="Times,serif" font-size="14.00" style="">Start</text>
</g>
<!-- process1 -->
<g id="node3" class="node" pointer-events="visible" data-name="process1">

<path fill="none" stroke="lightgray" d="M107.03,-109C107.03,-109 66.06,-109 66.06,-109 60.06,-109 54.06,-103 54.06,-97 54.06,-97 54.06,-85 54.06,-85 54.06,-79 60.06,-73 66.06,-73 66.06,-73 107.03,-73 107.03,-73 113.03,-73 119.03,-79 119.03,-85 119.03,-85 119.03,-97 119.03,-97 119.03,-103 113.03,-109 107.03,-109" style=""/>
<text text-anchor="middle" x="86.55" y="-86.8" font-family="Times,serif" font-size="14.00" style="">process1</text>
</g>
<!-- con1&#45;&gt;process1 -->
<g id="edge2" class="edge" data-name="con1-&gt;process1">

<path fill="none" stroke="black" d="M86.55,-161.65C86.55,-149.96 86.55,-134.19 86.55,-120.62" style=""/>
<polygon fill="black" stroke="black" points="90.05,-120.92 86.55,-110.92 83.05,-120.92 90.05,-120.92" style=""/>
<text text-anchor="middle" x="99.77" y="-131.2" font-family="Times,serif" font-size="14.00" style="">YES</text>
</g>
<!-- process2 -->
<g id="node4" class="node" pointer-events="visible" data-name="process2">

<path fill="none" stroke="lightgray" d="M190.03,-109C190.03,-109 149.06,-109 149.06,-109 143.06,-109 137.06,-103 137.06,-97 137.06,-97 137.06,-85 137.06,-85 137.06,-79 143.06,-73 149.06,-73 149.06,-73 190.03,-73 190.03,-73 196.03,-73 202.03,-79 202.03,-85 202.03,-85 202.03,-97 202.03,-97 202.03,-103 196.03,-109 190.03,-109" style=""/>
<text text-anchor="middle" x="169.55" y="-86.8" font-family="Times,serif" font-size="14.00" style="">process2</text>
</g>
<!-- con1&#45;&gt;process2 -->
<g id="edge3" class="edge" data-name="con1-&gt;process2">

<path fill="none" stroke="black" d="M100.25,-164.47C112.45,-151.71 130.58,-132.75 145.23,-117.43" style=""/>
<polygon fill="black" stroke="black" points="147.53,-120.09 151.91,-110.44 142.47,-115.25 147.53,-120.09" style=""/>
<text text-anchor="middle" x="144.66" y="-131.2" font-family="Times,serif" font-size="14.00" style="">NO</text>
</g>
<!-- end -->
<g id="node5" class="node" pointer-events="visible" data-name="end">

<ellipse fill="none" stroke="lightgray" cx="127.55" cy="-18" rx="27" ry="18" style=""/>
<text text-anchor="middle" x="127.55" y="-13.8" font-family="Times,serif" font-size="14.00" style="">End</text>
</g>
<!-- process1&#45;&gt;end -->
<g id="edge4" class="edge" data-name="process1-&gt;end">

<path fill="none" stroke="black" d="M96.47,-72.81C101.29,-64.46 107.19,-54.25 112.54,-44.98" style=""/>
<polygon fill="black" stroke="black" points="115.55,-46.78 117.52,-36.37 109.49,-43.28 115.55,-46.78" style=""/>
</g>
<!-- process2&#45;&gt;end -->
<g id="edge5" class="edge" data-name="process2-&gt;end">

<path fill="none" stroke="black" d="M159.38,-72.81C154.39,-64.37 148.27,-54.03 142.74,-44.68" style=""/>
<polygon fill="black" stroke="black" points="145.92,-43.18 137.82,-36.36 139.89,-46.75 145.92,-43.18" style=""/>
</g>
</g>
</svg>